# xmcd CD database file
#
# Track frame offsets:
#	150
#	21450
#	36817
#
# Disc length: 773 seconds
#
# Revision: 5
# Processed by: cddbd v1.5PL3 Copyright (c) Steve Scherf et al.
# Submitted via: CDex 1.50beta10
#
DISCID=1f030303
DTITLE=L'Arc〜en〜Ciel - Vivid Colors
DYEAR=1995
DGENRE=Rock
TTITLE0=Vivid Colors
TTITLE1=Brilliant Years
TTITLE2=Vivid Colors (Voiceless Version)
EXTD=YEAR: 1995
EXTT0=
EXTT1=
EXTT2=
PLAYORDER=
